<svg width="400" height="903.704" xmlns="http://www.w3.org/2000/svg" display="block"><g fill-rule="evenodd"><path d="M360.5 42.265c-.275.111-.5.405-.5.653 0 .249-.495.857-1.1 1.353-.784.641-.916.904-.461.915.779.017 2.067-1.069 2.712-2.286.471-.889.327-1.03-.651-.635m-145.7 193.26c0 1.17 2.263 4.075 3.173 4.075.858 0-.898-3.519-2.273-4.558-.883-.666-.9-.657-.9.483M0 242.4v2.8l2.1-.028c1.432-.019 1.848-.127 1.306-.338-.766-.3-.761-.33.145-.872.516-.309 1.278-1.342 1.693-2.295.909-2.085.908-2.067.156-2.067-.33 0-.6.249-.6.554 0 .305-.474.865-1.054 1.245l-1.054.69.654-.933c.977-1.395.837-1.556-1.346-1.556H0v2.8m20.395-2.009c.832 1.555 2.005 1.802 2.005.423 0-1.085-.129-1.214-1.214-1.214-1.086 0-1.169.084-.791.791m46.405 9.368c0 .758 2.577 2.97 3.826 3.283 1.461.367 1.62-.066.247-.674-.645-.285-1.493-1.115-1.886-1.843-.715-1.329-2.187-1.844-2.187-.766m331.3-.283c.385.1 1.015.1 1.4 0 .385-.101.07-.183-.7-.183s-1.085.082-.7.183m-65.596 2.565c-.453 1.208-.441 1.268.138.688.349-.349.573-.944.496-1.323-.095-.474-.293-.276-.634.635M106.4 254.684c.33.121.87.454 1.2.74.715.618 5.938 2.354 8.2 2.725 1.554.255 1.571.246.6-.329-.55-.325-1.377-.598-1.839-.606-.461-.008-1.487-.644-2.28-1.414-1.348-1.31-1.604-1.398-3.961-1.368-1.386.017-2.25.13-1.92.252m192.528.416c-.135.385-.7 1.313-1.256 2.063l-1.009 1.363 1.269-.749c.697-.412 1.268-.879 1.268-1.036 0-.158.36-.401.8-.541.44-.14.8-.497.8-.794 0-.296.225-.63.5-.741.275-.111-.091-.216-.813-.233-.908-.022-1.388.183-1.559.668m54.272 1.433c0 .367-.196.667-.436.667-.457 0-1.928 1.583-1.951 2.1-.007.165.503.3 1.134.3 1.066 0 2.188-2.798 1.427-3.559-.096-.096-.174.126-.174.492m40.7 4.258c-1.563 1.533-1.811 2.009-1.047 2.009.53 0 3.147-2.684 3.147-3.228 0-.627-.535-.316-2.1 1.219m-274.155 5.889c.36.704.655 1.549.655 1.877 0 .327.142.684.316.791.697.431-.053-2.547-.812-3.223-.811-.723-.812-.722-.159.555M270 266.191c-.55.313-1.72.878-2.6 1.256-.88.378-1.874.918-2.209 1.2-.335.282-1.865.579-3.4.661-1.535.081-.451.135 2.409.12 5.054-.027 5.204-.053 5.326-.914.069-.488.668-1.343 1.331-1.9 1.298-1.093.773-1.352-.857-.423M136 268.2c0 1.289.095 1.4 1.2 1.4 1.467 0 1.513-.451.182-1.782-1.31-1.31-1.382-1.29-1.382.382m250.21 76.167c-.144.456-.533 1.099-.865 1.431-.331.331-.414.602-.184.602.47 0 1.805-2.367 1.505-2.667-.106-.106-.311.179-.456.634m-5.96 41.333c-.633.605-1.488 1.1-1.9 1.1-.413 0-.75.261-.75.579 0 .819 2.02.077 3.194-1.172 1.29-1.373.819-1.811-.544-.507m-3.71 48.653c-.337.894-.855 1.309-2.094 1.68-.905.272-1.646.639-1.646.818 0 .178.225.255.5.17.275-.085.992-.262 1.593-.393 1.066-.234 2.508-2.224 2.226-3.072-.072-.215-.332.144-.579.797M29.213 541.3c.022.809 1.354 2.175 2.409 2.471l.978.274-1.025-.939c-.564-.516-1.143-1.246-1.288-1.622-.303-.79-1.093-.925-1.074-.184m331.008 26.916c-.63.541-.982.978-.783.971.494-.018 2.318-1.564 2.101-1.781-.095-.096-.689.269-1.318.81M352.12 658c0 1.21.075 1.705.167 1.1a8.899 8.899 0 0 0 0-2.2c-.092-.605-.167-.11-.167 1.1m-44.82 43.246c-.715.458-1.3.98-1.3 1.161 0 .18-.107.657-.237 1.06-.15.464.216.255.995-.567.677-.715 1.413-1.3 1.636-1.3.223 0 .406-.27.406-.6 0-.744.063-.755-1.5.246m7.8 33.596c-.825.864-1.5 1.663-1.5 1.775 0 .482 2.416-1.1 2.814-1.843.823-1.538.187-1.505-1.314.068M78.4 738.22c0 .761 1.302 2.498 2.17 2.894 1.358.618 1.302.232-.17-1.174-.66-.631-1.2-1.325-1.2-1.543a.4.4 0 0 0-.4-.397c-.22 0-.4.099-.4.22m234.093 70.58c0 .77.082 1.085.183.7.1-.385.1-1.015 0-1.4-.101-.385-.183-.07-.183.7M290.3 878.033c-1.568 1.639-1.754 1.967-1.113 1.967.503 0 3.213-2.71 3.213-3.213 0-.69-.571-.351-2.1 1.246M175.293 902.4c0 .77.082 1.085.183.7.1-.385.1-1.015 0-1.4-.101-.385-.183-.07-.183.7"/><path d="M358.15 42.587c-.44 1.145.063 1.36.92.394.836-.944.84-.981.087-.981-.43 0-.883.264-1.007.587M0 230.8c0 .22.63.4 1.4.4.77 0 1.4-.18 1.4-.4 0-.22-.63-.4-1.4-.4-.77 0-1.4.18-1.4.4m397.6 0c0 .22.54.4 1.2.4.66 0 1.2-.18 1.2-.4 0-.22-.54-.4-1.2-.4-.66 0-1.2.18-1.2.4m-176 3.754c0 1.092 2.2 3.38 3.3 3.432.601.028.281-.738-.4-.957-.385-.123-1.06-.765-1.5-1.426-.686-1.029-1.4-1.564-1.4-1.049m35.144 1.833c-1.242 1.035-.568 1.047.747.013.559-.44.833-.8.607-.8-.225 0-.834.354-1.354.787m140.85.513c-.013 1.926-1.403 2.635-5.384 2.744-2.619.072-3.567.593-1.512.829.867.1 1.141.379 1.303 1.324l.206 1.196.863-.863c.475-.475.968-.758 1.097-.63.128.128.233.029.233-.221s.252-.357.56-.239c.307.118.695-.006.861-.275.206-.333.136-.386-.221-.165-.354.219-.427.168-.226-.158.183-.296.475-.344.762-.124.255.196 1.229.276 2.164.177l1.7-.179v-2.158c0-2.131-.015-2.158-1.2-2.158-.976 0-1.201.168-1.206.9M0 237.6c0 .22.63.4 1.4.4.77 0 1.4-.18 1.4-.4 0-.22-.63-.4-1.4-.4-.77 0-1.4.18-1.4.4m214.809.7c-.007 1.036.153 1.3.791 1.3.995 0 .995-.328 0-1.6l-.782-1-.009 1.3M0 238.758c0 .197.698.425 1.551.506 1.13.108 1.499.01 1.358-.358C2.69 238.337 0 238.2 0 238.758m383.633 1.904c-.764.535-.862.858-.632 2.085.364 1.937.608 2.04 4.896 2.047l3.698.006-.143-1.893-.143-1.893-2.003-.007c-1.167-.004-1.941-.174-1.853-.407.254-.672-2.844-.622-3.82.062m1.267.15c-.495.199-.9.578-.9.842s-.116.364-.257.222c-.39-.39.666-1.479 1.406-1.451.441.018.36.143-.249.387M.7 245.482a5.661 5.661 0 0 0 1.8 0c.495-.095.09-.173-.9-.173s-1.395.078-.9.173m67.7 3.898c0 .393 2.632 2.616 3.1 2.618.76.003.607-.442-.575-1.676-.905-.945-2.525-1.549-2.525-.942m264 .364c0 .299-.445 1.199-.988 2-1.039 1.531-.856 2 .268.688 1.357-1.585 1.928-3.232 1.12-3.232-.22 0-.4.245-.4.544m-220.354 5.381c1.14.867 4.712 2.25 5.019 1.943.406-.406-3.662-2.653-4.819-2.66l-1.154-.008.954.725m185.224.466c-.485.655-1.784 1.58-2.888 2.055-2.733 1.176-2.282 1.359.599.243 2.296-.889 5.087-3.489 3.745-3.489-.316 0-.972.536-1.456 1.191m56.559 1.552c-.346.669-.615 1.541-.597 1.937.019.435.198.246.453-.48.232-.66.604-1.429.826-1.71.222-.28.301-.612.175-.737-.125-.125-.51.32-.857.99m38.721 2.644c-.459 1.194.095 1.43 1.028.437l.961-1.024h-.882c-.485 0-.983.264-1.107.587m-78.05.489c.385.1 1.015.1 1.4 0 .385-.101.07-.183-.7-.183s-1.085.082-.7.183m3.969.755c1.411.434 2.092.935 2.777 2.043.499.807.977 1.257 1.062 1.001.42-1.259-2.846-3.713-4.854-3.647-.47.015-.013.287 1.015.603M73.422 262.5c.645.715 1.33 1.48 1.524 1.7.193.22.165.04-.064-.4-.492-.945-2.002-2.6-2.372-2.6-.143 0 .268.585.912 1.3m44.921 4.114c.663.557 1.262 1.398 1.331 1.868.069.471.337.925.595 1.01.297.097.39-.146.254-.667-.229-.875-2.437-3.225-3.03-3.225-.195 0 .188.456.85 1.014m16.568-.197c.329.559.688 1.369.797 1.8.184.723.203.717.246-.073.025-.47-.334-1.28-.797-1.8l-.844-.944.598 1.017m138.082-.076c-2.733 1.12-4.812 3.259-3.168 3.259.33 0 .718-.315.861-.7.306-.82 1.362-1.638 3.312-2.568 1.8-.857 1.094-.851-1.005.009M0 272.8c0 .22.63.4 1.4.4.77 0 1.4-.18 1.4-.4 0-.22-.63-.4-1.4-.4-.77 0-1.4.18-1.4.4m385.275 70.816c-.481.448-.875.988-.875 1.2 0 .211-.251.384-.557.384-.307 0-.67.294-.808.654-.382.995 1.245-.172 2.488-1.784 1.123-1.455 1.023-1.638-.248-.454m-4.735 39.796c-.396 1.031-1.633 2.188-2.34 2.188-.33 0-.6.27-.6.6 0 .839.508.749 1.689-.3 1.131-1.005 2.095-2.65 1.753-2.992-.123-.122-.349.105-.502.504m-5.056 50.821c-.394.528-1.159 1.071-1.7 1.207-.84.21-1.431.96-.758.96.97 0 3.532-2.154 3.303-2.777-.071-.192-.451.083-.845.61M31.293 541.6c.275.44.636.8.803.8.167 0 .304-.36.304-.8 0-.534-.267-.8-.803-.8-.704 0-.742.1-.304.8m328.276 25.208c-.787.875-1.276 1.592-1.087 1.592.467 0 2.718-2.33 2.718-2.814 0-.568-.069-.516-1.631 1.222m-2.754 43.754c-.424 1.114-1.861 2.569-3.015 3.052-.663.278-.682.34-.113.361.846.031 3.316-2.379 3.617-3.53.301-1.151-.038-1.07-.489.117m-5.582 41.86c-.413 1.61-.419 2.95-.033 6.777.56 5.548.31 6.553-1.965 7.91-1.002.597-1.212.861-.695.873 2.821.068 3.782-2.984 3.071-9.746-.251-2.384-.236-4.214.046-5.528.56-2.611.229-2.834-.424-.286M307.8 703.2c-.703.776-.699.8.138.8.595 0 .862-.247.862-.8 0-.44-.062-.8-.138-.8-.076 0-.464.36-.862.8m5.95 30.587c-.415 1.08.041 1.221 1.013.313.963-.899.963-.9.088-.9-.482 0-.977.264-1.101.587M80.4 738.8c.235.44.602.8.814.8.212 0 .386-.36.386-.8 0-.538-.267-.8-.814-.8-.69 0-.749.122-.386.8m3.436 59.3c.547.966 1.908 2.3 2.334 2.287.236-.007-.065-.448-.67-.98-.605-.533-1.1-1.157-1.1-1.388a.423.423 0 0 0-.424-.419c-.233 0-.296.225-.14.5m227.964 7.1c-.154.91-.196 1.738-.093 1.84.103.103.306-.563.453-1.48.147-.917.188-1.745.093-1.84-.095-.096-.299.57-.453 1.48m-1.284 4.295c-.486 1.121-1.071 2.153-1.3 2.295-.592.366-.524 1.913.076 1.713.811-.271 2.38-3.726 2.239-4.929-.121-1.029-.201-.956-1.015.921m-21.566 67.492c-.459 1.194.095 1.43 1.028.437l.961-1.024h-.882c-.485 0-.983.264-1.107.587m-51.78 21.657c-.534.574-1.33 1.192-1.77 1.374-.593.246-.634.338-.159.357.573.022 3.159-2.088 3.159-2.578 0-.375-.265-.192-1.23.847" fill="#555"/><path d="M278.135 208.841c.313.837.509 1.025.599.577.17-.847-.196-1.818-.687-1.818-.218 0-.181.524.088 1.241M0 234.176v3.024h1.4c1.886 0 1.796.783-.1.864l-1.5.064 1.4.168c.77.092 1.544.424 1.72.736.189.335.927.563 1.8.555 1.236-.01 1.378-.093.861-.5-.758-.597-1.739-2.908-1.44-3.392.12-.194-.03-.83-.332-1.413-.303-.584-.609-1.471-.68-1.971-.104-.735-.418-.935-1.629-1.035l-1.5-.124v3.024m397.357-2.007c-.12.313-.26.847-.31 1.188-.135.923-.284.987-2.556 1.091l-2.091.095v1.64c0 1.694-.76 2.747-2.262 3.134-.406.105.465.211 1.936.237 3.956.068 5.506-.677 5.52-2.654.005-.732.23-.9 1.206-.9 1.188 0 1.2-.022 1.2-2.2 0-2.235-1.95-3.438-2.643-1.631M214.8 233.6c0 .612.258.794 1.1.775 1.079-.025 1.082-.033.174-.397-.509-.204-.813-.553-.676-.775.137-.221.059-.403-.174-.403-.233 0-.424.36-.424.8m7.6 1.104c0 .409 1.844 2.377 2.4 2.563.244.081.494.494.557.919.152 1.034 1.013 1.28.937.267-.033-.438-.184-.721-.335-.628-.385.239-.759-.873-.759-2.258 0-.81-.199-1.167-.649-1.167-.558 0-.573.098-.107.7.516.667.503.667-.282 0-.853-.724-1.762-.928-1.762-.396m30.4.782c0 1.021-.388 1.161-1.149.414-.407-.401-.483-.381-.38.1.078.361-.11.549-.471.471-.481-.103-.501-.027-.1.38.76.773.608 1.083-.597 1.222-1.185.137-1.852 1.527-.732 1.527.346 0 .629-.27.629-.6 0-.33.315-.597.7-.594.598.005.613.063.1.394-.483.312-.419.389.324.394.508.003.832-.142.719-.324-.112-.181.193-.316.677-.3.657.023.873-.193.85-.85-.016-.484.119-.789.3-.677.182.113.33-.151.33-.586 0-.435-.225-.881-.5-.992-.299-.121-.218-.215.2-.233.975-.044.882-.661-.1-.661-.567 0-.8.267-.8.915m6.733-.386c-.073.165-.898.819-1.833 1.454-1.496 1.016-2.507 2.365-1.2 1.601.275-.161.168.086-.238.55l-.738.842 2.038-.05c1.121-.028 2.038-.206 2.038-.397 0-.191-.18-.236-.4-.1-.22.136-.4.067-.4-.153s.169-.504.375-.631c.206-.128.355-.543.331-.924-.024-.381.09-1.097.252-1.592.27-.822.089-1.305-.225-.6m-6.733 2.119c0 .184-.2.457-.445.609-.478.295-1.224-.593-.916-1.091.232-.375 1.361.026 1.361.482m5.801.901c-.558.797-2.046 1.401-1.575.638a.445.445 0 0 1 .615-.132c.224.138.311-.176.208-.747-.147-.809-.043-.95.577-.788.683.178.7.279.175 1.029M247.6 239c-.408.491-.38.6.151.6.357 0 .649-.27.649-.6 0-.33-.068-.6-.151-.6-.083 0-.375.27-.649.6m-17.691.66c-1.214.348-.749.396 3.491.364 1.98-.015 4.275.135 5.1.332 1.163.279 1.5.24 1.5-.174 0-.587-8.355-1.019-10.091-.522m13.291.53c0 .458.216.508.959.226.527-.201 1.067-.256 1.2-.124.132.133.241.031.241-.225 0-.257-.54-.467-1.2-.467-.791 0-1.2.201-1.2.59m139.6-.023c0 .312-.104.897-.23 1.3-.222.705-.213.705.24-.003.259-.405 1.037-.983 1.73-1.285l1.26-.548-1.5-.015c-1.036-.011-1.5.16-1.5.551m-156.6.233c-.136.22-.158.544-.05.719.108.176.032.581-.17.9-.284.448-.38.352-.42-.419-.036-.683-.111-.778-.236-.3-.1.385-.36.7-.577.7-.217 0-.284-.178-.15-.395.141-.229-.022-.293-.386-.154-.403.155-.503.406-.275.696.196.249.547.993.779 1.653.258.733.434.918.453.476.02-.441.212-.612.494-.438.286.177.353.11.177-.175-.275-.445.663-2.227.997-1.894.09.09.19-.271.222-.803.058-.983-.41-1.292-.858-.566m169.183.027c-.21.341-.143.395.217.173.357-.221.427-.168.221.165-.166.269-.554.393-.861.275-.308-.118-.56-.03-.56.196s-.161.312-.358.19c-.197-.122-.491.093-.654.476-.41.967-.51 2.898-.151 2.898.552 0 3.467 2.995 3.717 3.82.203.668.507.789 1.647.656l1.399-.164v-8.816l-1.772.2c-.975.11-1.945.027-2.155-.183-.244-.244-.494-.202-.69.114m-372.826.606c.134.348.243.708.243.8 0 .092.163.167.363.167.199 0 .268-.36.153-.8-.115-.44-.388-.8-.605-.8-.218 0-.287.285-.154.633m361.435-.023c-.278.335-.39.725-.249.866.141.142.257.042.257-.222s.405-.643.9-.842c.609-.244.69-.369.249-.387-.358-.014-.879.249-1.157.585m-1.592 1.846c0 .251-.315.689-.7.975-.652.483-.646.511.1.407.694-.096 1.478-1.838.828-1.838-.125 0-.228.205-.228.456m-343.2 1.816c0 .081.45.319 1 .528.587.223 1 .697 1 1.147 0 .422.295.881.657 1.019.515.198.56.136.209-.286-.332-.4-.32-.667.044-1.034.387-.392.323-.592-.31-.955-.761-.437-2.6-.733-2.6-.419m339.5.56c-.958.558-1.013 4.562-.067 4.925 2.52.967 7.241-.342 6.363-1.764-.332-.537 1.622-1.907 3.004-2.106 5.526-.799 4.63-1.452-2-1.457-3.769-.003-6.9.169-7.3.402m-377 .261l-1.7.153v1.777c0 1.754.018 1.777 1.357 1.777 1.387 0 1.843-.503 1.843-2.033 0-.815.597-1.043.937-.357.111.226.156.18.098-.1-.058-.28.181-.729.53-.997.695-.534.541-.545-3.065-.22m68.914 4.407a17.61 17.61 0 0 1 1.298 1.292c.433.502.483.44.329-.4-.1-.545-.195-1.127-.211-1.292-.017-.165-.519-.3-1.116-.3-1.066 0-1.072.012-.3.7m258.803-.328c-.401.649.47.846.987.224.402-.485.377-.596-.131-.596-.344 0-.729.168-.856.372m1.463.108c-.264.264-.48.692-.48.951s-.268.693-.596.965c-.327.272-.473.699-.323.949.15.25-.032.208-.404-.094s-.677-.374-.677-.161-.405.601-.9.861c-.697.367-.719.417-.1.225a11.03 11.03 0 0 1 1.6-.347c1.231-.15 2.633-1.167 2.409-1.749-.11-.287-.041-.423.154-.303.337.209.837-.633.837-1.41 0-.524-.953-.454-1.52.113m-330.175.603c.497.096 1.217.092 1.6-.008.382-.1-.025-.179-.905-.174-.88.004-1.193.086-.695.182m24.095.541c0 .233.168.32.372.193.205-.126.486-.047.624.176.138.224.031.407-.239.407s-.382.108-.25.24c.521.522 1.143-.298.663-.876-.552-.666-1.17-.74-1.17-.14m303.28.056c-.658.658-.609 1.325.057.772.295-.245.665-.317.821-.161.156.157.166-.025.02-.403-.314-.819-.292-.814-.898-.208M0 253.8v3h2.8v-6H0v3m116.15 2.017c1.469.78 2.866 1.297 3.105 1.149.239-.148.594-.02.79.283.299.464.414.46.729-.03.472-.734.12-1.341-.614-1.059-.308.118-.56.015-.56-.228 0-.916-1.463-1.507-3.76-1.519l-2.361-.013 2.671 1.417m175.625-.589c-.385.425-.553.772-.375.772.178 0 .01.347-.373.77-.383.424-1.038.705-1.454.625-.429-.083-.717.06-.665.33.051.261-.133.43-.408.375-.275-.055-.5.073-.5.285 0 .212.81.37 1.8.35.99-.02 1.8-.204 1.8-.409s.18-.262.399-.127c.22.136.895-.003 1.5-.309.606-.306 1.622-.812 2.258-1.123.636-.312 1.417-.963 1.736-1.448.833-1.266-4.577-1.352-5.718-.091m1.263.034c.177.286.11.353-.176.176-.265-.163-.462-.047-.462.272 0 .306.27.557.6.557.33 0 .6-.18.6-.4 0-.22.116-.285.257-.143.38.38-.681 1.509-1.147 1.22-.22-.135-.552 0-.738.301-.229.371-.303.222-.23-.466.178-1.671.772-2.366 1.296-1.517m-251.219.503c.425.31.909.479 1.077.376.167-.104.304-.014.304.198 0 .212.405.297.9.189.705-.155.773-.108.311.216-.506.355-.49.451.117.684.389.149.819.159.956.021.137-.137.029-.249-.241-.249s-.379-.18-.243-.401c.285-.46-1.68-1.32-2.234-.978-.201.124-.366.036-.366-.197s-.304-.424-.676-.424c-.591 0-.578.072.095.565m314.273.175c-2.14.613-3.153 3.684-1.192 3.614.715-.026.985-.129.6-.23-.385-.1-.7-.309-.7-.464 0-.503 2.306-2.821 2.556-2.57.134.134.244.033.244-.223 0-.507-.141-.519-1.508-.127m36.308 3.091c0 .251.502.357 1.205.254 1.689-.248 1.79-.685.157-.685-.749 0-1.362.194-1.362.431m-60 1.556c0 .357.235.498.598.359.328-.127.498-.391.376-.588-.349-.565-.974-.418-.974.229m-20.077.347c-.345.345-.725.531-.843.413-.28-.281-1.25 1.45-1.318 2.353-.031.419.227.7.643.7.476 0 .695-.317.695-1.007 0-.872-.088-.939-.65-.5-.576.449-.588.428-.112-.18.296-.378.656-.672.8-.653 1.175.155 1.726-.123 1.504-.76-.221-.634-.196-.639.262-.053.438.56.578.57 1.041.073.295-.315.652-.456.795-.314.142.143-.083.509-.5.814-.558.408-.646.691-.333 1.067.234.282.439.693.456.913.017.226 1.619.452 3.675.519l3.643.119-.822-1.155c-1.145-1.608-1.892-2.161-2.735-2.022-.398.065-.945-.019-1.214-.189-1.103-.692-4.343-.782-4.987-.138m-241.178.624c.461.291.461.379 0 .562-.345.137-.252.231.255.255.666.031.699.102.2.425-.4.258-.433.39-.1.394.275.003.455.212.4.464-.057.259.507.509 1.3.577 1.09.093 1.185.055.43-.169-.534-.158-1.058-.553-1.165-.877-.167-.504-.099-.51.47-.04.366.302.665.428.665.281 0-.392-2.131-2.204-2.6-2.211-.22-.004-.155.149.145.339m245.512.647c.283.737-.526 1.795-1.373 1.795-.339 0-.482-.135-.317-.3.165-.165.493-.3.728-.3.236 0 .475-.315.531-.7.121-.824-.247-.896-1.027-.2-.477.425-.481.396-.031-.2.651-.86 1.183-.894 1.489-.095m-3.629.467c-.209.545-.345.587-.594.183-.26-.421-.365-.412-.541.048-.121.313-.101.733.044.933.377.522 1.375.669 1.058.156-.145-.235-.043-.694.228-1.019.27-.326.398-.686.283-.8-.114-.114-.329.11-.478.499m16.172.904c0 .671.709.837.946.222.139-.363-.002-.598-.359-.598-.323 0-.587.169-.587.376M107 265.2c.44.189 1.07.344 1.4.344.378 0 .304-.127-.2-.344-.44-.189-1.07-.344-1.4-.344-.378 0-.304.127.2.344m23.618-.028c-.151.242-.441.337-.646.211-.204-.127-.597-.087-.872.087-.275.175-.635.321-.8.324-.165.003-.285.166-.266.361.019.196-.206.524-.5.731-.418.293-.404.325.066.145.33-.127.915-.342 1.3-.477.385-.136.7-.413.7-.615 0-.219.285-.215.707.011.487.261 1.014.195 1.7-.214.546-.325.7-.503.342-.395-.358.108-.833.015-1.055-.207-.272-.272-.493-.259-.676.038m2.682 1.428c0 .55.168 1 .374 1 .205 0 .262.18.126.4-.136.22-.057.4.176.4.233 0 .379.221.324.491-.055.269.305.552.8.627.495.076.9.029.9-.103 0-.714-1.224-3.015-1.603-3.015-.244 0-.333-.18-.197-.4.136-.22-.011-.4-.326-.4-.346 0-.574.398-.574 1m142.374-.57c-.509.2-.825.526-.702.725.123.199-.057.469-.4.6-.348.134-.496.444-.336.704.183.296.113.356-.194.167-.368-.228-.371-.429-.012-.862.555-.669.218-.725-.867-.144-.432.231-.69.574-.574.763.117.188-.133.252-.554.142-.508-.133-.921.088-1.223.653-.454.847-.427.853 3.544.775 3.968-.078 5.386-.371 4.487-.927-.244-.15-.443-.113-.443.084 0 .196-.26.357-.578.357-.318 0-.566-.105-.552-.234.094-.876-.135-1.633-.494-1.633-.233 0-.295.208-.138.462.177.286.11.353-.176.176-.254-.157-.462-.095-.462.138s.225.429.5.436c.275.007.171.203-.23.437-1.003.583-1.14.307-.479-.967.411-.791.434-1.085.085-1.094-.262-.007-.147-.203.254-.437.402-.233.837-.318.967-.188.13.131-.019.24-.33.243-.465.005-.471.067-.031.346.517.328 2.454-.292 2.461-.787.005-.378-2.511-.331-3.523.065m-158.979.69c.222.593.169.61-.42.131-1.28-1.041-.672-.059.825 1.333 1.635 1.52 3.048 1.905 2.627.716-.431-1.215-1.377-2.056-2.03-1.805-.387.148-.527.077-.365-.185.145-.234.004-.526-.314-.648-.412-.158-.504-.027-.323.458m161.172.347c-.428.428-.307 1.405.14 1.129.223-.138.279-.464.123-.724-.162-.269.008-.236.393.077.583.473.677.459.677-.1 0-.648-.829-.886-1.333-.382M0 270.358v1.958l1.5.144 1.5.144-.137-2.102c-.137-2.098-.14-2.102-1.5-2.102H0v1.958m383.853 72.528c.107.173-.084.314-.425.314-.416 0-.592.328-.536 1 .045.55.201 1 .346 1 .516 0 1.227-1.172.967-1.592-.146-.235-.049-.378.215-.318.264.061.55-.076.635-.304.085-.228-.194-.415-.621-.415-.426 0-.688.142-.581.315m-4.259 40.134c-.003.429-.138.6-.3.38-.787-1.07-1.694-.635-1.694.812 0 1.166.136 1.419.7 1.302.385-.08.675-.451.645-.825-.03-.374.085-.594.255-.489.591.365 1.372-.988.863-1.497-.351-.351-.464-.274-.469.317m-3.988 48.48c-.003.275-.245.5-.536.5-.815 0-2.27 1.747-2.27 2.726 0 1.094.448 1.105 1.656.044.519-.457.696-.702.392-.545-.369.192-.485.103-.35-.269.111-.306.369-.523.572-.483.625.124 1.291-1.29.899-1.909-.252-.399-.359-.418-.363-.064m-5.022 43.727c-.469.759.215.946.911.249.624-.623.625-.676.014-.676-.364 0-.78.192-.925.427m-7.938 41.898c-.093.151.263.301.792.333.529.031.962-.065.962-.215 0-.364-1.538-.467-1.754-.118m-1.846.408c0 .257-.135.422-.3.367-.165-.055-.33.06-.366.255-.036.196-.306.508-.6.694-.298.189-.34.341-.096.345.603.008 1.952-1.537 1.626-1.863-.145-.145-.264-.054-.264.202m5.148 6.026c.442.281.404.431-.2.782-.411.239-.545.44-.297.447.248.007.652-.23.897-.525.467-.563.221-1.067-.515-1.057-.238.003-.186.162.115.353M29.836 539.942c-.269.435.657.858 1.877.858.512 0 .697-.14.467-.355-.629-.588-2.097-.903-2.344-.503m329.448 25.556c-.282.386-.406.477-.275.202.137-.288-.026-.5-.385-.5-.429 0-.624.382-.624 1.224 0 .727.165 1.121.407.972.223-.138.304-.417.179-.619s.05-.261.39-.131c.361.139.717-.024.858-.391.387-1.008.012-1.524-.55-.757m-3.37 44.159c-.084.252-.66.485-1.281.518-1.231.066-2.085 3.025-.872 3.025.829 0 2.639-1.884 2.639-2.748 0-.432.225-.876.5-.987.312-.126.249-.214-.167-.233-.366-.018-.735.174-.819.425m-6.032 39.718c-.375.375-.682.946-.682 1.268 0 .322-.284 1.019-.631 1.548-.901 1.376-.45 8.988.654 11.052.223.417.245.757.049.757s-.544-.585-.773-1.3c-.369-1.15-.422-.94-.458 1.823l-.041 3.122 1.236-.722c1.817-1.063 2.292-2.224 1.907-4.661-.442-2.79-.718-11.669-.345-11.065.185.299.368.017.478-.735.099-.671.047-1.138-.114-1.038-.162.099-.362-.024-.446-.275-.099-.297-.389-.219-.834.226m.139 1.57c-.56 1.473-.874 1.327-.354-.165.234-.672.5-1.147.59-1.056.091.091-.015.64-.236 1.221m-.026 2.664c-.343.642-.34 1.548.015 3.648.259 1.538.39 2.877.29 2.976-.542.542-1.093-5.594-.62-6.903.276-.763.562-1.204.637-.98.074.223-.071.79-.322 1.259M317.28 731.68c-.596.596-.627 1.236-.05 1.043.236-.078.401-.298.366-.488-.035-.19.176-.498.47-.684.294-.186.345-.342.114-.345-.231-.003-.636.21-.9.474m-2.78 1.16c-1.284.477-1.115.624.5.436.77-.09 1.4-.215 1.4-.277 0-.353-1.126-.447-1.9-.159M84.926 798.15c.088.248.454.425.813.395.359-.03.561.093.45.273-.111.179-.019.44.204.578.233.144.407-.165.407-.722 0-.776-.206-.974-1.017-.974-.581 0-.948.193-.857.45m226.795.593c-.044.628-.463 1.791-.932 2.585-.557.944-.757 1.744-.577 2.308.178.563.126.773-.149.603-.783-.484-1.243 1.25-1.221 4.609.025 3.816.307 3.663 1.848-1 1.073-3.247 1.137-4.274.132-2.119-.616 1.32-.743 1.415-.93.7-.12-.457-.063-.735.126-.618.189.117.56-.513.826-1.399.265-.887.634-1.612.819-1.612.516 0 .4-1.112-.134-1.29-.276-.092-.338-.372-.15-.676.261-.422.391-.418.695.023.246.357.283.079.107-.807-.186-.941-.132-1.267.176-1.076.269.166.443-.05.443-.55 0-1.268-.989-.975-1.079.319m-56.298 93.07c-.428.323-.815 1.127-.86 1.786l-.083 1.199 1.161-.827c1.807-1.287 2.351-2.798.992-2.758-.238.007-.783.277-1.21.6m1.097.854c-.726 1.106-.998 1.207-.633.233.238-.634.19-.644-.512-.107-.751.575-.753.567-.073-.233 1.034-1.218 2.028-1.131 1.218.107m-21.751 3.5c-.257.28-.197 1.374.066 1.211.424-.262.5.754.087 1.167-.699.699-.43 1.395.417 1.082.474-.175.861-.508.861-.739 0-.541.547-1.088 1.088-1.088.231 0 .564-.387.739-.861.313-.847-.383-1.116-1.082-.417-.395.395-1.434.346-1.186-.055.15-.244-.782-.527-.99-.3m-15.069 4.93l-2.9.138v2.365h12.8v-1.148c0-1.65-.954-1.781-9.9-1.355m-44.007 1.303c0 .77.082 1.085.183.7.1-.385.1-1.015 0-1.4-.101-.385-.183-.07-.183.7m39.507 0c0 .8.2 1.2.6 1.2.4 0 .6-.4.6-1.2 0-.8-.2-1.2-.6-1.2-.4 0-.6.4-.6 1.2" fill="#999"/><path d="M353.467 3.067c-.147.146-.267 1.217-.267 2.38V7.56l-2.3.12-2.3.12-.119 2.5-.119 2.5H343.6v4.762l-2.5.119-2.5.119-.119 2.281-.12 2.28-2.28.12-2.281.119-.119 2.5-.119 2.5H328.8v4.762l-2.5.119-2.5.119-.119 2.281-.12 2.28-2.28.12L319 37.4l-.119 2.5-.119 2.5H314v4.762l-2.5.119-2.5.119-.119 2.281-.12 2.28-2.28.12-2.281.119-.119 2.5-.119 2.5H299.2v4.762l-2.5.119-2.5.119-.119 2.281-.12 2.28-2.28.12L289.4 67l-.119 2.5-.119 2.5H284.4v4.762l-2.5.119-2.5.119-.119 2.281-.12 2.28-2.28.12-2.281.119-.119 2.5-.119 2.5H269.6v4.762l-2.5.119-2.5.119-.119 2.281-.12 2.28-2.28.12-2.281.119-.119 2.5-.119 2.5H254.8v4.762l-2.5.119-2.5.119-.109 7.28-.109 7.281-2.291.119-2.291.12-.107 9.9-.107 9.9H240V156h-5.2v19.56l-2.3.12-2.3.12-.109 7.3-.109 7.3H225.2v10H220v4.797l-44.3.101-44.3.102-.12 2.298-.12 2.297-32.08.103L67 210.2l-.119 2.497-.119 2.496-22.081.104-22.081.103-.12 2.291-.119 2.291-7.281.109-7.28.109-.119 2.281-.12 2.28-2.28.12L3 225l.042 4c.03 2.837.228 4.341.68 5.171.35.645.539 1.33.419 1.524-.299.484.682 2.795 1.44 3.392.44.347 3.022.491 8.943.5 5.444.009 8.238.151 8.076.413-.136.22-.07.4.147.4.669 0 .717 1.371.068 1.9-.543.442-.504.595.329 1.3 1.06.897 2.684 1.06 2.991.3.161-.4.208-.4.233 0 .024.376 1.474.5 5.824.5h5.793l.263 1.1c.818 3.427 1.856 3.628 18.995 3.681 10.608.034 14.604.172 14.815.513.38.614.007 1.193-.547.851-.262-.162-.319-.082-.145.2.159.257.457.364.662.238.204-.127.372-.034.372.206 0 .897-1.262.892-2.22-.008-.906-.851-1.352-.705-.674.22.481.656 2.236 1.387 3.094 1.29.56-.064.838.179.928.809.138.976 1.457 1.267 1.807.4.161-.4.208-.4.233 0 .025.393 4.583.503 21.332.513 21.817.013 22.7.072 22.7 1.519 0 .243.252.346.56.228.734-.282 1.086.325.614 1.059-.313.487-.431.492-.726.034-.267-.414-.534-.441-1.1-.112-.726.422-.725.435.019.447.421.007.66.118.53.249-.13.13-.641.108-1.136-.049l-.899-.286.969-.537c.533-.295.733-.543.445-.551-.292-.008-.397-.218-.238-.476.178-.288.11-.353-.183-.172-.257.159-.364.457-.238.662.31.501-.088.468-1.143-.093-.79-.421-.821-.402-.325.2.302.366.398.665.213.665-.703 0-3.993-1.362-4.662-1.93-.385-.327-.7-.42-.7-.207 0 .518 2.222 2.137 2.933 2.137.311 0 1.443.405 2.516.9l1.951.9 84.2.099c79.73.093 84.227.061 84.717-.6.285-.385.645-.699.8-.699.156 0 .242-.124.191-.275-.05-.152.249-.21.665-.13.416.08 1.071-.201 1.454-.625.383-.423.551-.77.373-.77-.178 0 .011-.371.421-.823.479-.529 1.181-.801 1.962-.76 7.118.374 33.017-.088 33.017-.59 0-.315.36-.687.8-.827.44-.14.8-.444.8-.676 0-.264.223-.236.596.072.775.644.355 1.306-.63.993-.428-.136-.766-.055-.766.184 0 .502 1.459.517 2.6.027.44-.189.643-.356.451-.372-.192-.015-.15-.268.094-.561.334-.403.301-.534-.134-.534-.317 0-.483.15-.37.334.114.183.026.333-.194.333-.713 0-.854-.696-.243-1.204.328-.272.596-.72.596-.996 0-1.26 1.119-1.38 13.129-1.412 9.803-.025 12.071-.132 12.071-.567 0-.565 1.163-1.191 1.531-.824.118.119-.024.438-.316.71-.429.398-.471.377-.215-.107s.214-.505-.215-.107c-.659.611-.326 1.013.558.674.884-.34.85-1.756-.043-1.807-.467-.026-.367-.146.3-.36.651-.208.759-.334.309-.36-.591-.034-.625-.186-.236-1.04l.455-1 11.636-.013c13.725-.015 13.096.175 13.39-4.04.038-.545.693-.68 3.946-.814 4.734-.193 5.7-.761 5.7-3.35v-1.64l2.091-.095c2.97-.136 2.888.099 2.9-8.248l.009-6-9.9-.107-9.9-.107V215.2h-34.291l-.255-1.86c-.36-2.629-1.898-4.077-2.378-2.24-.138.527-.195.477-.23-.2l-.046-.9h-61.825l-.453-1.2c-.478-1.267-.234-1.531.65-.7.438.412.481.289.248-.696-.328-1.384-.718-1.696-2.564-2.051-.937-.18-1.45-.091-1.694.294-.252.399-.351.414-.356.053-.003-.275-.141-.479-.306-.453-.165.026-2.505.026-5.2 0l-4.9-.047v-9.962l2.5-.119L269 195l.107-9.88.107-9.88 2.293-.12 2.293-.12.106-12.3.106-12.3h5.188v-14.8h4.8v-9.56l2.3-.12 2.3-.12.119-2.5.119-2.5H294v-4.76l2.3-.12 2.3-.12.119-2.281.12-2.28 2.28-.12L303.4 111l.112-4.881.112-4.881 2.488-.119L308.6 101l.119-2.281.12-2.28 2.28-.12 2.281-.119.119-2.5.119-2.5h4.762v-4.762l2.5-.119 2.5-.119.119-2.281.12-2.28 2.28-.12 2.281-.119.119-2.5.119-2.5h4.762v-4.762l2.5-.119 2.5-.119.119-2.281.12-2.28 2.28-.12L343 66.6l.119-2.5.119-2.5H348v-4.762l2.5-.119 2.5-.119.119-2.281.12-2.28 2.28-.12 2.281-.119.116-3.501c.106-3.215.195-3.554 1.1-4.146.541-.355.984-.894.984-1.199 0-.83-.623-.668-1.33.346l-.628.9-.021-1.131c-.019-1.032.093-1.124 1.279-1.042 3.474.239 3.5.221 3.5-2.408v-2.381l2.5-.119 2.5-.119.119-2.481.118-2.48 2.282-.12 2.281-.119.12-2.3.12-2.3h4.76v-9.6h-4.8v-4.8h-4.762l-.119-2.5-.119-2.5-2.5-.119-2.5-.119V2.8h-4.533c-2.494 0-4.654.12-4.8.267M215.4 233.201c-.353.57 1.544 1.199 3.616 1.199 1.518 0 1.843.153 2.336 1.1.798 1.534 2.251 2.763 3.536 2.991.598.106 1 .052.893-.121a.376.376 0 0 1 .128-.514c.177-.109.36.274.408.85.048.577.232 1.149.41 1.272.177.122.318.618.312 1.103-.006.484-.091.801-.189.702-.343-.343-1.294 1.423-1.011 1.88.176.285.109.352-.177.175-.282-.174-.474-.003-.494.438-.019.442-.195.257-.453-.476-.232-.66-.622-1.451-.866-1.758-.362-.456-.261-.511.554-.303.548.139.772.15.497.024s-.5-.405-.5-.62c0-.215.225-.255.5-.09.34.204.324.084-.049-.376-.68-.838-1.418-.889-1.106-.077.126.33.056.6-.158.6-.213 0-.387-.375-.387-.833 0-.787-.175-.825-3.176-.677-1.747.086-3.094.024-2.994-.138.1-.162-.292-.802-.87-1.423L215.109 237l.645 1.086c.826 1.389.813 1.514-.154 1.514-.737 0-.8-.267-.8-3.4 0-2.126.159-3.4.424-3.4.233 0 .312.18.176.401m44.14 1.362c.304.188.383.636.208 1.171-.157.476-.266 1.177-.242 1.558.024.381-.125.796-.331.924-.206.127-.375.411-.375.631 0 .22.18.289.4.153.22-.136.4-.092.4.097s-.99.373-2.2.407c-1.268.037-2.2-.109-2.2-.344 0-.224.16-.309.355-.188.195.121.58-.053.856-.386.418-.503.393-.562-.154-.352-.366.14-.657.055-.657-.191 0-.244.21-.443.467-.443.256 0 .348-.118.203-.263-.318-.318.466-1.337 1.028-1.337.22 0 .167.28-.117.623-.418.503-.418.599-.003.5.282-.068.583.293.668.801.086.509-.012.821-.217.694a.439.439 0 0 0-.603.14c-.471.763 1.017.159 1.575-.638.53-.756.507-.851-.25-1.049-.461-.12-.713-.409-.566-.647.146-.236-.039-.546-.411-.689-.8-.307-2.017 1.1-2.391 2.765-.293 1.309-1.936 1.538-2.869.4-.315-.385-.467-.487-.337-.228.292.585-.418 1.073-1.02.702-.308-.191-.278-.378.1-.618.423-.268.388-.345-.157-.35-.385-.003-.7.264-.7.594 0 .33-.283.6-.629.6-1.12 0-.453-1.39.732-1.527 1.205-.139 1.357-.449.597-1.222-.401-.407-.381-.483.1-.38.361.078.549-.11.471-.471-.103-.481-.027-.501.38-.1.781.768 1.149.6 1.149-.524 0-.563.135-.942.3-.843.165.1 1.02.061 1.9-.085 1.995-.332 3.896-.283 4.54.115m-35.378.537c.785.667.798.667.282 0-.462-.597-.453-.7.065-.7.536 0 1.253 3.036.84 3.554-.59.738-3.749-2.141-3.749-3.415 0-.439 1.865-.031 2.562.561m27.277 1.637c-.308.498.438 1.386.916 1.091.245-.152.445-.425.445-.609 0-.456-1.129-.857-1.361-.482M248.4 239c0 .33-.292.6-.649.6-.531 0-.559-.109-.151-.6.274-.33.566-.6.649-.6.083 0 .151.27.151.6m-8.4 1.182c0 .414-.337.453-1.5.174-.825-.197-3.12-.347-5.1-.332-4.24.032-4.705-.016-3.491-.364 1.736-.497 10.091-.065 10.091.522m5.6-.115c0 .256-.109.358-.241.225-.133-.132-.673-.077-1.2.124-.743.282-.959.232-.959-.226 0-.389.409-.59 1.2-.59.66 0 1.2.21 1.2.467m-20.09.976c.123.64-.015 1.178-.355 1.393-.368.234-.394.354-.075.358.671.008 1.254-1.162 1.021-2.051-.299-1.143-.816-.881-.591.3M41.8 245.091c.633.363.697.563.31.955-.364.367-.376.634-.044 1.034.355.427.298.481-.275.261-.523-.201-.636-.137-.408.231.247.401.135.412-.535.054-.972-.521-1.144-.914-.248-.571.418.161.6-.028.6-.622 0-.542-.365-.992-1-1.233-.55-.209-1-.447-1-.528 0-.314 1.839-.018 2.6.419m-37.021.088c.464.293.364.464-.5.858-.593.27-1.079.808-1.079 1.194 0 1.464-.473 1.969-1.843 1.969-1.857 0-1.726.786.143.857l1.5.057-1.6.286-1.6.286 1.5.057 1.5.057v6H0v11.6h2.8v2c0 1.1.006 2.135.013 2.3.008.165-.667.409-1.5.543l-1.513.243 1.675.057 1.676.057-.151 2c-.132 1.753-.057 2 .612 2 .464 0 .684.205.562.523-.128.333.13.53.713.543a54.13 54.13 0 0 1 1.813.077l.9.057v51.6l.9.046c.677.035.727.092.2.23-.812.212-.928 1.134-.2 1.589.712.445 1.542.527 1.295.128-.114-.186-.025-.451.198-.589.226-.139.407.116.407.572 0 .649.255.824 1.2.824h1.2v20.771c0 19.445.045 20.782.7 20.953.667.174.667.185 0 .23-.91.06-.895.946.031 1.784 1.003.907 1.581.83 1.787-.238l.173-.9.055.9c.041.679.3.9 1.054.9h1V401c0 23.357.002 23.4.824 23.4.456 0 .711.181.572.407-.138.223-.419.302-.624.176-.544-.337-.455.774.108 1.337.69.69 1.432.591 1.644-.22.138-.527.195-.477.23.2.035.679.29.9 1.037.9h.991l.109 7.3.109 7.3h9.2l.109-7.281.109-7.281 2.491-.119L37 427l.112-4.88.112-4.881 2.288-.119L41.8 417l.112-4.9.113-4.9H46.8v-9.562l2.5-.119 2.5-.119.119-2.5.119-2.5H56.8v-4.8h4.8v-4.762l2.5-.119 2.5-.119.119-2.5.119-2.5H71.6v-4.8h4.8v-4.762l2.5-.119 2.5-.119.119-2.5.119-2.5H106V358h10.4v4.8h10v5.2h4.76l.12 2.3.12 2.3 4.9.112 4.9.113v9.975h4.8v10h-4.8v10h-15.175l-.113-4.9-.112-4.9-2.5-.119-2.5-.119V388h-4.762l-.119-2.5-.119-2.5-9.5-.107-9.5-.107v5.176l-2.5.119-2.5.119-.119 2.281-.12 2.28-2.28.12L87 393l-.119 2.281-.12 2.282-2.48.118-2.481.119-.119 2.481-.118 2.48-2.282.12L77 403l-.119 2.281-.12 2.28-2.28.12-2.281.119-.119 2.5-.119 2.5H66.8v9.56l-2.3.12-2.3.12-.112 4.88-.112 4.881-2.288.119-2.288.12-.112 4.9-.113 4.9H52v9.56l-2.3.12-2.3.12-.109 7.3-.109 7.3H42.4V506h19.2v-4.775l4.9-.113 4.9-.112.12-2.3.12-2.3h4.76v-5.162l2.5-.119 2.5-.119.119-2.281.12-2.28 2.28-.12 2.281-.119.12-2.3.12-2.3h4.76v-5.162l2.5-.119 2.5-.119.113-4.68.112-4.681 2.288-.119 2.287-.12.107-9.9.107-9.9H106v-10h5.2V432h15.2v29.962l-2.5.119-2.5.119-.109 7.28-.109 7.281-2.291.119-2.291.12-.109 7.3-.109 7.3H111.6v14.762l-2.5.119-2.5.119-.107 9.68-.107 9.68-2.293.12-2.293.12-.109 7.3-.109 7.3H96.8v9.962l-2.5.119-2.5.119-.119 2.5-.119 2.5h-9.924l-.119-2.5-.119-2.5-2.5-.119-2.5-.119V535.6h5.218l-.109-7.1-.109-7.1h-9.2l-.12 2.288-.119 2.288-4.881.112-4.88.112-.119 2.5-.119 2.5H30.4l-.046.9c-.035.677-.092.727-.23.2-.21-.804-1.338-.926-2.044-.22-.747.747-.568 1.447.42 1.638l.9.173-.9.055c-.838.05-.9.238-.9 2.723 0 3.174.815 4.603 2.009 3.523 1.012-.916 2.791-.153 2.791 1.198 0 1.28-.204 1.267-1.442-.09-.986-1.081-.998-1.083-.735-.142.147.527.699 1.337 1.225 1.8l.958.842.009 23.271c.008 17.918.122 23.316.497 23.468.375.152.373.205-.012.229-1.518.096.008 4.032 1.563 4.032.841 0 1.097-.145.884-.5-.214-.357-.111-.347.359.034.362.294.845.42 1.073.279.284-.176.447 7.597.518 24.665L37.4 644.2l2.5.119 2.5.119V674h14.775l.113 4.9.112 4.9 2.281.119 2.28.12.12 2.28.119 2.281 12.3.106 12.3.106v4.788h29.562l.119 2.5.119 2.5h86.8c70.917 0 87.028-.096 88.048-.527 1.332-.562 2.152-1.893 2.152-3.492v-.981h20v-4.775l4.9-.113 4.9-.112.12-2.3.12-2.3h9.56v-5.2h5.2v-4.76l2.3-.12 2.3-.12.12-2.3.12-2.3h2.209c1.429 0 2.42-.212 2.808-.6.33-.33.407-.6.172-.6-.274 0-.414-1.195-.388-3.3.036-2.887.093-3.137.458-2 .229.715.577 1.3.773 1.3.196 0 .174-.34-.049-.757-1.053-1.968-1.557-9.668-.717-10.966.312-.482.684-1.352.827-1.933.252-1.022 1.467-1.94 1.467-1.108 0 .226.147.32.328.209.18-.112.241.373.136 1.076-.105.704-.276 1.026-.381.716-.106-.31-.53.32-.944 1.4-.695 1.813-.387 8.344.358 7.599.101-.101-.023-1.413-.277-2.916-.385-2.287-.362-2.959.144-4.126.447-1.031.62-1.185.662-.594.037.504.263.208.611-.8l.554-1.6-.273 1.8c-.315 2.08-.333 2.911-.135 6.2.111 1.827.214 1.206.432-2.6.158-2.75.419-5.748.581-6.662.253-1.427.189-1.689-.451-1.854-.6-.154-.565-.2.182-.238.879-.044.924-.185.869-2.746-.031-1.485-.043-8.963-.026-16.618l.03-13.918 1.3.234c1.144.207 1.406.077 2.179-1.081.843-1.263 1.163-3.917.473-3.917-.18 0-.217-.285-.084-.634.196-.509.309-.529.579-.1.2.318.324-.519.308-2.066-.192-17.831.101-36.8.568-36.8.849 0 3.077-2.055 3.077-2.838 0-.397.315-.925.7-1.172.653-.42.651-.435-.033-.22-.484.152-.671.06-.55-.27.1-.275.394-.452.652-.394.258.059.439-.121.403-.4-.454-3.458.117-37.906.628-37.906.33 0 .603-.315.606-.7.005-.585.067-.604.377-.115.286.453.624.497 1.486.193 1.37-.481 2.223-2.422 1.316-2.995-.489-.31-.47-.372.115-.377.478-.004.7-.323.7-1.006 0-.674-.228-1.01-.7-1.032-.418-.018-.499-.112-.2-.233.647-.261.619-1.345-.057-2.235-.543-.716-2.643-.988-2.643-.342 0 .196-.433.331-.962.3-.529-.032-.87-.205-.759-.385.111-.18.454-.231.761-.113.308.118.56.041.56-.173 0-.213-.45-.387-1-.387-.683 0-1.002.222-1.006.7-.004.431-.119.531-.3.261-.36-.539-1.725-.585-2.367-.08-.568.447-.533 2.001.054 2.413.247.173.132.296-.281.3-.385.003-.7.27-.7.594 0 .479-.908.608-4.9.7l-4.9.112-.12 2.288-.119 2.288-4.881.112-4.88.112-.119 2.5-.119 2.5H303.6v-29.6H294v9.56l-2.3.12-2.3.12-.112 4.9-.113 4.9H284.4v9.962l-2.5.119-2.5.119-.109 7.28-.109 7.281-2.291.119-2.291.12-.109 7.3-.109 7.3H269.6v14.762l-2.5.119-2.5.119-.112 4.9-.113 4.9H244.4v-30h4.8v-9.962l2.5-.119 2.5-.119.112-4.9.113-4.9h4.8l-.112-4.7-.113-4.7h-9.2l-.119 2.5-.119 2.5H219.6v-5.225l-4.7.112-4.7.113-.119 2.5-.119 2.5h-24.737l-.113-4.9-.112-4.9h-9.2l-.12 2.288-.119 2.288-4.881.112-4.88.112-.119 2.5-.119 2.5h-29.524l-.119-2.5-.119-2.5-2.5-.119-2.5-.119v-39.524l2.5-.119 2.5-.119.112-4.88.112-4.881 2.288-.119 2.288-.12.109-7.28.109-7.281 2.291-.119 2.291-.12.112-4.9.113-4.9h5.175v-4.775l4.7-.112 4.7-.113.12-2.3.12-2.3h10.36v19.962l-2.5.119-2.5.119-.112 4.9-.113 4.9H160.8v14.8H156V506h9.6v-4.76l2.3-.12 2.3-.12.12-2.3.12-2.3h4.76v-5.162l2.5-.119 2.5-.119.113-4.68.112-4.681 2.288-.119 2.287-.12.112-4.9.113-4.9H190v-9.962l2.5-.119 2.5-.119.112-4.9.113-4.9H200v-4.8h4.8V442h10.4v30H210v9.56l-2.3.12-2.3.12-.109 7.28-.109 7.281-2.291.119-2.291.12-.113 4.7-.112 4.7H214.8v-4.8h4.8v-4.762l2.5-.119 2.5-.119.109-7.28.109-7.281 2.291-.119 2.291-.12.109-7.3.109-7.3h4.782v-15.2h5.2v-9.56l2.3-.12 2.3-.12.109-7.3.109-7.3h4.782v-9.962l2.5-.119 2.5-.119.112-4.9.113-4.9h4.775v-14.8h4.8v-14.8h20.4v25.162l-2.5.119-2.5.119-.109 7.28-.109 7.281-2.291.119-2.291.12-.112 4.9-.113 4.9H269.6v14.8h-5.2v9.56l-2.3.12-2.3.12-.112 4.9-.113 4.9H254.8v10h-5.2v19.56l-2.3.12-2.3.12v9.2h14l.12-2.3.12-2.3H264v-5.162l2.5-.119L269 491l.119-2.281.12-2.28 2.28-.12 2.281-.119.119-2.281.12-2.282 2.48-.118L279 481.4l.119-2.481.118-2.48 2.282-.12 2.281-.119.109-7.28.109-7.281 2.291-.119 2.291-.12.112-4.9.113-4.9H294v-4.8h14.8v4.8h9.6v-4.775l4.9-.113 4.9-.112.12-2.3.12-2.3h24.72l.12 2.3.12 2.3 2.488.119 2.488.119.112 4.881.112 4.881 2.3.12 2.3.12v9.92l-2.3.12-2.3.12-.109 7.281-.109 7.281-2.491.119-2.491.119v9.2l4.7.113 4.7.112v-4.787l2.5-.119 2.5-.119.112-5.056c.11-5.021.118-5.056 1.1-5.244.543-.104.988-.034.988.155 0 .19.16.345.356.345.195 0 .33-.308.3-.685-.032-.387.286-.755.731-.846.648-.133.702-.059.307.418-.382.461-.363.58.095.58.317 0 .491-.138.387-.306-.104-.168-.017-.412.194-.542.234-.145.395-8.155.416-20.713.037-22.197.048-22.306 2.284-22.306.291 0 .53-.187.53-.416 0-.249.21-.22.525.075.561.524-.28 1.876-1.109 1.784-.211-.024-.411.357-.445.847-.033.489.097.791.291.672.193-.12.23-.413.083-.651-.155-.251-.084-.32.169-.164.24.148.622-.049.849-.439.282-.483.417-.532.425-.154.007.305-.447.98-1.009 1.5-1.082 1.003-1.005 1.202.214.55 1.147-.614 2.033-3.871 1.967-7.234-.355-18.265.089-45.597.74-45.488.385.065.832.298.994.518.163.222.296.067.3-.349.005-.62.109-.663.606-.251.49.407.6.383.6-.127 0-.819.665-1.215 1.034-.618.181.293.116.361-.172.183-.276-.17-.462-.026-.462.358 0 1.204-1.221 3.081-1.848 2.841-.367-.141-.49-.06-.322.212.15.242.024.598-.279.79-.33.209-.368.351-.093.355.749.01 2.941-2.256 2.955-3.054.007-.407.277-1.089.6-1.516.718-.95.767-2.485.087-2.759-.4-.161-.4-.208 0-.233.391-.025.5-3.517.5-16.038v-16.007l1.32-.629c1.982-.946 3.706-4.336 2.38-4.682-.511-.134-.449-.196.229-.23.857-.042.924-.209.866-2.146-.428-14.251.057-35.9.805-35.9.483 0 .813-.277.832-.7.018-.418.112-.499.233-.2.111.275.377.5.592.5.215 0 .255-.225.09-.5-.181-.302-.015-.268.42.085.954.775 1.833-.332 1.833-2.31 0-1.247-.064-1.323-.7-.831-.667.516-.667.503 0-.282.644-.759.7-2.273.7-19.046v-18.221l1.4-1.068c.77-.587 1.4-1.364 1.4-1.726 0-.478-.384-.286-1.4.699l-1.4 1.357v-1.379c0-1.347.035-1.377 1.573-1.32 1.021.038 1.649-.138 1.788-.5.117-.307.412-.558.655-.558.243 0 .15.291-.206.648-.357.356-.558.737-.448.847 1.332 1.333 2.472-7.144 1.357-10.095-1.307-3.461-4.154-4.707-7.199-3.152-.594.304-1.601.552-2.238.552-1.182 0-2.567 1.136-2.729 2.239-.259 1.764-3.712 2.406-6.846 1.273-1.128-.408-1.412-.392-1.723.1-.252.398-.374.427-.378.088-.003-.275-.276-.5-.606-.5-.333 0-.6.356-.6.8 0 .528-.267.8-.784.8-.67 0-.772.249-.7 1.7l.084 1.7-7.2.105c-6.195.091-7.27.199-7.7.777-.463.621-.5.616-.5-.058 0-.618-.228-.692-1.5-.49-1.489.237-3.333 1.811-3.268 2.788.022.344.088.337.234-.024.111-.277.355-.409.541-.294.186.115.468-.002.627-.259.191-.31.115-.361-.224-.151-.345.213-.447.134-.312-.238.111-.306.405-.511.652-.456.248.055.45-.08.45-.3 0-.497.42-.502 1.195-.012.507.321.469.493-.258 1.17-.468.437-.923.722-1.011.635-.087-.087-.184.183-.215.6-.032.417.245.839.616.936.64.169-20.72.451-21.881.288-.341-.047-.466.153-.326.52a.629.629 0 0 1-.345.817c-.321.123-.575-.012-.575-.306 0-.74-2.234-.731-2.85.012-.403.485-.402.765.004 1.414.282.453.316.693.076.544-.237-.146-.43-.075-.43.158 0 .233.264.424.587.424.34 0 .497.237.372.561-.263.687-15.064.724-15.293.039-.074-.22-.325-.631-.559-.913-.313-.376-.225-.659.333-1.067.417-.305.645-.668.507-.806-.138-.139-.519.015-.845.342-.525.524-.654.48-1.116-.381-1.012-1.892-3.304-.687-3.808 2.003l-.267 1.422-13.456.028c-18.506.038-23.031.471-25.084 2.4-1.085 1.019-.97 1.645.127.687.791-.692 3.393-1.633 4.902-1.774a26.08 26.08 0 0 0 2.3-.363c.963-.199 1.299-.127 1.297.277-.004.734-1.783 1.527-2.461 1.097-.44-.279-.434-.341.031-.346.311-.003.46-.112.33-.243-.13-.13-.565-.045-.967.188-.401.234-.516.43-.254.437.349.009.326.303-.085 1.094-.661 1.274-.524 1.55.479.967.401-.234.505-.43.23-.437-.275-.007-.5-.203-.5-.436 0-.233.208-.295.462-.138.286.177.353.11.176-.176-.157-.254-.095-.462.138-.462.375 0 .607.84.471 1.7-.061.391.879.201 1.203-.243.138-.188.365-.156.506.071.141.228-.062.515-.45.638-1.611.511-144.309.05-144.206-.466.055-.275-.091-.5-.324-.5s-.312-.18-.176-.4c.136-.22.084-.4-.116-.4-.199 0-.378-.555-.397-1.233-.027-.945.106-1.179.572-1 .333.128.727.236.874.239.147.003-.001.176-.328.382-.468.296-.403.362.3.309 1.078-.081 1.112-.244.195-.94-.786-.597-2.1-.735-2.1-.221 0 .473-1.695 1.179-2.317.964-.399-.137-.41-.307-.047-.744.356-.429.603-.456 1.017-.112.424.352.547.309.547-.195 0-1.053-1.865-.835-2.145.251-.219.847-2.167 2.122-2.593 1.696-.107-.108.06-.199.371-.202.418-.005.44-.087.083-.314-.347-.22-.25-.454.342-.823.618-.386.749-.392.522-.025-.195.315-.138.389.158.206.625-.386.586-1.038-.063-1.038-1.653 0-2.89 2.626-1.375 2.918l.9.173-.9.055c-.525.031-.9.314-.9.678 0 .343.144.534.319.426.176-.108.581-.032.9.17.372.235-1.149.366-4.219.363l-4.8-.005-1.5-1.394c-1.497-1.392-2.105-2.374-.825-1.333.589.479.642.462.42-.131-.181-.485-.089-.616.323-.458.318.122.478.383.356.58-.122.197-.031.381.202.408.543.064 1.196.227 1.324.331.868.699 1.423.231.908-.766-.91-1.758-8.208-3.017-8.208-1.415 0 .33-.18.6-.4.6-.22 0-.4-.36-.4-.8 0-.788-.267-.8-17.542-.8H75.716l-.361-1.3c-.812-2.926-2.506-3.269-17.355-3.518-7.15-.12-12.595-.255-12.1-.3 2.152-.196.296-3.853-2.2-4.332-1.083-.208-1.3-.128-1.3.48 0 .568.107.623.48.25.613-.613 1.258-.626.882-.018-.176.284-.11.353.171.179.251-.155.847.082 1.325.527.789.736.806.833.178 1.074-.379.145-.903.04-1.163-.234-.373-.393-.263-.442.527-.234.86.227.898.201.276-.188-.399-.249-.984-.354-1.3-.232-.317.121-.576.047-.576-.167 0-.213-.135-.358-.3-.323-.765.161-1.764-.578-1.234-.914.303-.191-2.937-.354-7.466-.375-4.4-.021-7.775-.129-7.5-.24.536-.216.638-1.379.248-2.835-.239-.891-1.041-1.317-.848-.45.055.247-.17.531-.5.63-.533.161-.533.134 0-.243.539-.382.302-.611-.5-.484-.165.026-.3-.313-.3-.753 0-.767-.277-.801-6.7-.832-3.685-.017-6.475-.122-6.2-.233.922-.372.6-2.13-.4-2.181-.677-.035-.727-.092-.2-.23.755-.197.973-.924.276-.924-.233 0-.326-.158-.206-.351.297-.481-1.772-.85-4.72-.843-1.64.004-2.259.127-1.871.373m325.625 4.617c-.272.327-.657.495-.856.372-.51-.316-.022-.968.725-.968.508 0 .533.111.131.596m-1.426 1.292c.146.378.136.56-.02.403-.156-.156-.526-.084-.821.161-.666.553-.715-.114-.057-.772.606-.606.584-.611.898.208m3.204.652c-.911 1.002-1.036 1.606-.159.771.513-.489.853-.966.755-1.06-.098-.093-.366.037-.596.289m-259.943 1.398c-.139.223-.057.527.181.674.615.381 1.012-.14.498-.654-.287-.287-.511-.294-.679-.02m219.91 2.145c-.165.266-.348.939-.407 1.496-.073.688.001.837.23.466.186-.301.518-.436.738-.301.466.289 1.527-.84 1.147-1.22-.141-.142-.257-.077-.257.143 0 .22-.27.4-.6.4-.33 0-.6-.251-.6-.557 0-.319.197-.435.462-.272.286.177.353.11.176-.176-.361-.584-.518-.58-.889.021m5.475 1.288c-.606.73-3.994 1.895-4.536 1.56-.237-.147-.291-.059-.126.207.578.936 4.691-.456 5.19-1.756.283-.738.079-.743-.528-.011m-251.551 1.916c-.364.364-.588.349-.973-.066-.337-.363-.346-.452-.028-.273.26.146.593.07.74-.168.148-.238.373-.328.501-.2.129.128.021.446-.24.707m243.353-.53c-.15.244-.038.461.25.483.288.022.074.184-.476.36l-1 .32 1.1.04c1.152.042 1.316-.2.744-1.103-.24-.378-.427-.408-.618-.1m26.574 2.45c-.462.34-.294.381.726.18 1.641-.324 3.575.399 4.76 1.781.693.808.888.886.9.359.035-1.638-4.884-3.425-6.386-2.32m-2.962.995c.519.792.556 1.123.175 1.582-.265.32-.384.739-.265.932.119.193-.023.351-.316.351-.307 0-.529-.436-.524-1.034.004-.568.087-.807.184-.531.195.557.908.282.908-.35 0-.22-.531-.316-1.179-.214-.649.102-1.25.068-1.335-.076-.085-.144-.084.008.003.338.121.457.047.489-.31.135-.501-.497-.148-1.487.407-1.144.181.113.433-.065.56-.393.336-.878.948-.731 1.692.404m18.162.022c0 .651-1.024.784-1.397.181-.146-.236.035-.289.446-.131.535.205.63.11.425-.425-.158-.411-.105-.592.131-.446.217.134.395.504.395.821m-259.155.43c.299.36.546.945.549 1.3.003.363.4.702.906.774.911.129 1.235-.473.5-.928-.22-.136-.4-.046-.4.2s-.216.314-.48.15c-.369-.227-.363-.336.024-.465.374-.124.327-.365-.182-.926-.974-1.077-.37-.946.655.141 1.747 1.854 1.726 2.208-.129 2.138-1.09-.04-1.653-.236-1.588-.55a.397.397 0 0 0-.4-.494c-.333-.004-.3-.136.1-.394.499-.323.466-.394-.2-.425-.507-.024-.6-.118-.255-.255.461-.183.461-.271 0-.562-.319-.203-.358-.348-.094-.352.248-.003.695.288.994.648m243.123.446c-.45.596-.446.625.031.2.78-.696 1.148-.624 1.027.2-.056.385-.295.7-.531.7-.235 0-.563.135-.728.3-.165.165-.022.3.317.3.847 0 1.656-1.058 1.373-1.795-.306-.799-.838-.765-1.489.095m-3.456 1.585c-.281.732-1.912.489-1.912-.285 0-.33.21-.6.467-.6.256 0 .604-.138.772-.306.418-.418.938.501.673 1.191M108.2 265.2c.504.217.578.344.2.344-.33 0-.96-.155-1.4-.344-.504-.217-.578-.344-.2-.344.33 0 .96.155 1.4.344m7.188.38c.129.209-.131.575-.577.814-.546.292-.811.299-.811.02 0-.228.315-.427.7-.442.599-.024.584-.078-.1-.372-.652-.28-.675-.349-.124-.372.372-.015.782.143.912.352m3.312.797c.495.413.9.879.9 1.036 0 .157-.242.084-.537-.161-.295-.245-.684-.312-.864-.149-.18.164-.205.083-.055-.178.15-.262-.046-.661-.436-.888-.389-.227-.528-.412-.308-.412.22.001.805.339 1.3.752m154.631.244c-1.544.676-1.934 1.216-1.108 1.533.34.13.514.068.387-.139-.128-.206.121-.564.553-.795 1.085-.581 1.422-.525.867.144-.359.433-.356.634.012.862.307.189.377.129.194-.167-.157-.256-.035-.561.272-.679.307-.118.559-.477.559-.797 0-.688-.082-.686-1.736.038m5.869.828c0 .559-.094.573-.677.1-.385-.313-.555-.346-.393-.077.156.26.1.586-.123.724-.447.276-.568-.701-.14-1.129.504-.504 1.333-.266 1.333.382m105.855 75.537c-.085.228-.371.365-.635.304-.264-.06-.361.083-.215.318.145.235.046.689-.22 1.01-.306.369-.329.582-.061.582.232 0 .536-.36.676-.8.14-.44.422-.8.627-.8.205 0 .373-.27.373-.6 0-.33.18-.6.4-.6.621 0 .484.415-.616 1.857-1.685 2.209-2.371 2.349-2.455.502-.053-1.145.086-1.559.523-1.559.327 0 .508-.141.401-.314-.107-.173.155-.315.581-.315.427 0 .706.187.621.415M318.8 474.4v2.4H314v4.762l-2.5.119-2.5.119-.119 2.5-.119 2.5h-4.787l.112 4.7.113 4.7h9.2l.119-2.5.119-2.5h4.762v-4.762l2.5-.119 2.5-.119.119-2.281.12-2.28 2.28-.12 2.281-.119.113-4.7.112-4.7H318.8v2.4m41.802 43.998c-.399.441-.923.799-1.164.796-.244-.004-.202-.156.096-.345.294-.186.564-.498.6-.694.036-.195.201-.31.366-.255.165.055.3-.11.3-.367 0-.256.119-.347.264-.202.146.145-.062.625-.462 1.067m6.392.412c-.121.195-.499.248-.84.117-.485-.186-.508-.308-.107-.556.607-.375 1.262-.071.947.439m-.47 5.274c-.356.394-.845.711-1.086.704-.241-.007-.101-.208.31-.447.598-.347.639-.502.205-.77-.385-.238-.287-.316.338-.269.82.062.836.115.233.782m-5.891 41.488c.312-.258.564-.313.561-.121-.015.823-.685 1.291-1.691 1.18-.594-.065-.993.024-.885.198.107.173.012.429-.211.567-.242.149-.407-.245-.407-.972 0-.842.195-1.224.624-1.224.359 0 .522.212.385.5-.131.275-.007.18.276-.211.449-.62.532-.63.648-.079.105.498.254.532.7.162m-1.21 2.261c-1.166.852-1.654.682-.567-.199.519-.421 1.034-.676 1.143-.567.11.109-.149.454-.576.766m-2.458 41.673c-.434.293-1.048 2.094-.715 2.094.097 0 .339-.405.538-.9.249-.621.369-.696.387-.242.042 1.104-2.133 3.13-3.092 2.88-1.426-.373-.954-3.082.55-3.163.621-.033 1.197-.266 1.281-.518.084-.251.453-.454.819-.451.413.004.501.118.232.3m-7.298 41.274c-.234.671-.34 1.22-.236 1.22.27 0 1.025-2.078.826-2.276-.09-.091-.356.384-.59 1.056m1.185 8.087c-.029 1.027-.159 2.197-.29 2.6-.197.61-.165.632.194.133.339-.471.443-.256.484 1 .029.88.124 1.33.211 1 .087-.33-.001-1.95-.195-3.6-.292-2.489-.361-2.682-.404-1.133m1.262 4.133c.003 1.1.081 1.503.173.895.092-.609.09-1.509-.005-2-.095-.492-.171.005-.168 1.105m-.638 2.746c-.155.405-.468.583-.735.418-.278-.173-.357-.114-.196.147.148.239-.135.717-.627 1.062-.838.587-.845.626-.107.614.873-.013 2.335-1.748 2.091-2.48-.09-.271-.268-.171-.426.239m-27.609 28.521c-.147.146-.267 1.226-.267 2.4v2.133l-5.7.032c-9.496.055-8.91-.043-8.841 1.468.041.901-.121 1.3-.526 1.3-.321 0-1.036.536-1.588 1.192l-1.003 1.192-8.271.108-8.271.108-.12 2.294-.12 2.294-12.28.106-12.28.106-.119 2.5-.119 2.5H136.038l-.119-2.5-.119-2.5-14.9-.105-14.9-.105V704H91.2v-5.2H77.4c-16.675 0-15.4-.464-15.4 5.6v4h4.762l.119 2.5.119 2.5 2.5.119 2.5.119v9.562h4.8v6.626c0 6.883.255 8.174 1.614 8.174.432 0 .786.178.786.397 0 .218.54.912 1.2 1.543l1.2 1.147v28.303c0 28.106.006 28.302.8 28.094.615-.161.803-.01.813.653.017 1.145.708 1.996 2.285 2.811l1.298.67.102 34.891L87 871.4l4.9.112 4.9.113v4.775h9.6v4.8h9.962l.119 2.5.119 2.5 7.28.109 7.281.109.119 2.291.12 2.291 7.3.109 7.3.109V896h19.562l.119 2.5.119 2.5 5.1.112 5.1.112v2.376h39.2v-1.2c0-1.683 1.1-1.599 1.311.1l.161 1.3.064-1.24.064-1.239 3.973-.242c2.185-.133 6.141-.133 8.789 0 4.303.216 4.845.169 5.078-.439.192-.5.546-.619 1.335-.445 1.301.285 2.197-.57 2.716-2.595l.358-1.4 7.976-.204c9.555-.245 10.899-.673 11.585-3.684l.248-1.089 5.071-.111L269 891l.12-2.288.119-2.288 4.881-.112 4.88-.112.119-2.5.119-2.5h4.781c4.514 0 4.781-.045 4.781-.8 0-2.12 2.919-3.958 6.484-4.084l3.316-.116.12-2.288.119-2.288 4.881-.112 4.88-.112.103-28.143.102-28.142 1.332-1.332c1.703-1.703 2.879-6.221 2.554-9.81-.119-1.308-.053-2.373.147-2.373.572 0 .442-4.301-.138-4.535-.299-.121-.218-.215.2-.233.833-.038 1.001-2.225.2-2.599-.373-.174-.381-.29-.031-.456.352-.167.481-7.368.514-28.814l.044-28.59 1.587-1.635c.872-.899 1.586-1.873 1.586-2.164 0-.291.335-.764.744-1.051.624-.439.756-1.131.826-4.316.085-3.923.25-4.32 1.744-4.201.487.039 1.008-.217 1.158-.568.236-.555.275-.547.3.062.035.87.565.899 1.253.07.434-.523.425-.693-.051-.994-.471-.299-.449-.365.126-.37.802-.007 1-1.602.2-1.612-.348-.004-.366-.096-.058-.3.244-.162.475-1.456.515-2.875.086-3.078-.06-2.886 2.188-2.886 1.918 0 2.708-.542 2.596-1.78-.037-.414-.039-2.418-.004-4.453l.063-3.7h4.8V694h-4.533c-2.494 0-4.654.12-4.8.267M308.8 703.2c0 .553-.267.8-.862.8-.837 0-.841-.024-.138-.8.398-.44.786-.8.862-.8.076 0 .138.36.138.8m6.718 30.308c-.505.335-1.143.887-1.418 1.227-.429.53-.5.463-.5-.471 0-.764.269-1.19.9-1.424 1.4-.521 2.109-.055 1.018.668M81.6 738.8c0 .44-.174.8-.386.8-.212 0-.579-.36-.814-.8-.363-.678-.304-.8.386-.8.547 0 .814.262.814.8m2.8 59.219c0 .231.495.855 1.1 1.388.605.532.906.973.67.98-.426.013-1.787-1.321-2.334-2.287-.156-.275-.093-.5.14-.5s.424.189.424.419m2.4.655c0 .557-.174.866-.407.722-.223-.138-.315-.399-.204-.578.111-.18-.091-.303-.45-.273-.359.03-.725-.147-.813-.395-.091-.257.276-.45.857-.45.811 0 1.017.198 1.017.974m226-.25c0 .5-.174.716-.443.55-.308-.191-.362.135-.176 1.076.176.886.139 1.164-.107.807-.304-.441-.434-.445-.695-.023-.188.304-.126.584.15.676.534.178.65 1.29.134 1.29-.185 0-.554.725-.819 1.612-.266.886-.637 1.516-.826 1.399-.189-.117-.246.161-.126.618.187.715.314.62.93-.7.392-.841.746-1.259.785-.929.04.33.217.15.393-.4.431-1.344.431.108 0 1.8-.285 1.122-.309 1.135-.367.2-.046-.746-.26-.449-.843 1.171-.871 2.422-.757 3.271.157 1.176l.588-1.347.032 1.237c.035 1.325-1.496 4.606-2.27 4.864-.336.112-.466-.991-.462-3.936.005-4.057.413-5.829 1.228-5.326.275.17.327-.04.149-.603-.18-.564.02-1.364.577-2.308.469-.794.888-1.957.932-2.585.09-1.294 1.079-1.587 1.079-.319m-22 78.106c0 .072-.45.553-1 1.07l-1 .939v-1.069c0-.875.183-1.07 1-1.07.55 0 1 .059 1 .13m-33.149 15.347c.302.372.343.553.091.402-.252-.151-.571.02-.71.381-.138.36-.362.543-.498.407-.137-.136-.045-.492.203-.791.344-.414.314-.543-.126-.543-.317 0-.466.178-.332.395.135.218.067.286-.149.152-.475-.293-.421 1.175.059 1.612.187.169.234.122.104-.106-.129-.228.113-.415.536-.415.977 0 .976.003-.278.824-.577.379-.938.508-.803.288.136-.219-.031-.506-.371-.637-.34-.13-.531-.095-.424.078.107.173.031.576-.168.895-.246.395-.325.101-.246-.922.172-2.238 1.982-3.413 3.112-2.02m-21.892 4.59c-.248.401.791.45 1.186.055.709-.71 1.29-.369 1.215.713-.1 1.454-1.071 2.425-2.525 2.525-1.082.075-1.423-.506-.713-1.215.413-.413.337-1.429-.087-1.167-.263.163-.323-.931-.066-1.211.208-.227 1.14.056.99.3m.735 1.7c-.37.59-.5 1.572-.164 1.236.149-.148.27-.48.27-.736 0-.257.21-.467.467-.467.256 0 .571-.105.7-.233.128-.129-.045-.234-.385-.234-.339 0-.739.195-.888.434" fill="#fff"/><path d="M.705 230.283c.497.096 1.217.092 1.6-.008.382-.1-.025-.179-.905-.174-.88.004-1.193.086-.695.182m397.395 1.193c.385.1 1.015.1 1.4 0 .385-.101.07-.183-.7-.183s-1.085.082-.7.183m-177.288 3.45c-.021.577.89 2.053 1.712 2.774 1.224 1.073 1.348.832.204-.4-.561-.605-1.22-1.46-1.462-1.9-.243-.44-.447-.653-.454-.474M.705 239.483c.497.096 1.217.092 1.6-.008.382-.1-.025-.179-.905-.174-.88.004-1.193.086-.695.182m2.816 1.315l-.678 1.192.978-.641c.539-.352.979-.89.979-1.195 0-.908-.555-.628-1.279.644m382.287-.785c.155.251.613.37 1.018.264.405-.106.791-.026.859.177.067.203.912.428 1.877.5l1.754.13.127 1.71c.185 2.486.793 2.805 1.188.623.116-.639.038-.983-.19-.842-.213.131-.444-.259-.514-.868-.1-.871-.361-1.134-1.227-1.234-.605-.069-1.1-.262-1.1-.428 0-.166-.917-.344-2.037-.395-1.442-.066-1.954.04-1.755.363M311.78 810.965c-.16.855-.824 1.999-1.626 2.801-1.515 1.515-1.688 1.927-.654 1.561 1.602-.569 3.654-4.707 2.771-5.589-.121-.121-.342.431-.491 1.227" fill="red"/></g></svg>